<svg width="314" height="295" viewBox="0 0 314 295" fill="none" xmlns="http://www.w3.org/2000/svg">
<path d="M72.6958 77.6486C72.8977 74.7159 75.2159 72.3977 78.1486 72.1958C102.016 70.5527 128.167 79.3498 143.648 94.8306C160.208 111.391 161.765 133.076 147.67 147.17C133.576 161.265 111.891 159.708 95.3305 143.148C79.8498 127.667 71.0527 101.516 72.6958 77.6486Z" fill="#FCF7E6"/>
<path d="M241.804 77.6486C241.602 74.7159 239.284 72.3977 236.351 72.1958C212.484 70.5527 186.333 79.3498 170.852 94.8306C154.292 111.391 152.735 133.076 166.83 147.17C180.924 161.265 202.609 159.708 219.169 143.148C234.65 127.667 243.447 101.516 241.804 77.6486Z" fill="#FCF7E6"/>
<path d="M90.2573 218.004C90.4188 220.35 92.2733 222.205 94.6195 222.366C113.714 223.681 134.634 216.643 147.019 204.258C160.267 191.01 161.513 173.662 150.237 162.386C138.961 151.111 121.613 152.356 108.365 165.605C95.9805 177.989 88.9428 198.91 90.2573 218.004Z" fill="#FCF7E6"/>
<path d="M225.33 218.004C225.168 220.35 223.314 222.205 220.968 222.366C201.874 223.681 180.953 216.643 168.568 204.258C155.32 191.01 154.074 173.662 165.35 162.386C176.626 151.111 193.974 152.356 207.222 165.605C219.607 177.989 226.644 198.91 225.33 218.004Z" fill="#FCF7E6"/>
</svg>
